<?xml version="1.0" encoding="utf-8"?>
<svg xmlns="http://www.w3.org/2000/svg" xmlns:xlink="http://www.w3.org/1999/xlink" x="0px" y="0px"
     viewBox="0 100 900 550">
    <defs>
        <style>
            .st0{fill:#006797;}
            .st1{fill:#007BA6;}
            .st2{fill:#E31913;}
            .st3{fill:#FFFFFF;}
        </style>
    </defs>
    <polygon class="st0" points="646.2,190.3 646.2,392.7 340.7,190.3 267.2,190.3 267.2,263.8 267.2,468.1 338.8,468.1 338.5,263.8
	339.8,263.8 646.2,468.1 717.8,468.1 717.8,190.3 "/>
    <path class="st1" d="M811.7,263.8h-71.6v-73.5h71.6V263.8z M811.7,468.1h-71.6V294.3h71.6V468.1z"/>
    <path class="st1" d="M244.9,263.8h-71.6v-73.5h71.6V263.8z M244.9,468.1h-71.6V294.3h71.6V468.1z"/>
    <path class="st2" d="M814.5,547.4c0,18.6-15.1,33.7-33.7,33.7H114.3c-18.6,0-33.7-15.1-33.7-33.7V532c0-18.6,15.1-33.7,33.7-33.7
	h666.6c18.6,0,33.7,15.1,33.7,33.7L814.5,547.4L814.5,547.4z"/>
    <path class="st3" d="M99.4,525.4c0-3.9,1.7-7.2,5-9.9c3.3-2.8,7.4-4.2,12.2-4.2h69v15H113v6.8h55.2c5.9,0,10.3,1,13.1,3
	s4.3,5.5,4.3,10.4v6.4c0,2.5-0.4,4.7-1.3,6.6c-0.9,1.8-2.1,3.4-3.7,4.7c-1.5,1.3-3.4,2.2-5.5,2.8s-4.4,0.9-6.9,0.9H99.4v-15h72v-6.4
	h-54.8c-5.4-0.1-9.5-1.3-12.5-3.5s-4.5-5.5-4.7-10v-3.9C99.4,529.1,99.4,525.4,99.4,525.4z"/>
    <rect x="195.5" y="511.3" class="st3" width="13.7" height="56.7"/>
    <path class="st3" d="M219.2,525.4c0-3.9,1.7-7.2,5-9.9c3.4-2.8,7.4-4.2,12.2-4.2h69v15h-72.6v6.8H288c5.9,0,10.3,1,13.1,3
	c2.8,2,4.2,5.5,4.2,10.4v6.4c0,2.5-0.4,4.7-1.3,6.6c-0.9,1.8-2.1,3.4-3.7,4.7s-3.4,2.2-5.5,2.8s-4.4,0.9-6.9,0.9H219v-15h72v-6.4
	h-54.9c-5.4-0.1-9.5-1.3-12.5-3.5s-4.5-5.5-4.7-10v-3.9v-3.7H219.2z"/>
    <polygon class="st3"
             points="365,568 351.3,568 351.3,526.3 315.3,526.3 315.3,511.3 401.5,511.3 401.5,526.3 365,526.3 "/>
    <path class="st3" d="M411.3,526.3v-0.9c0-3.9,1.7-7.2,5-9.9c3.4-2.8,7.4-4.2,12.3-4.2h69v15L411.3,526.3L411.3,526.3z M497.6,552.6
	V568h-69c-4.8,0-8.9-1.4-12.3-4.1c-3.3-2.8-5-6.1-5-10v-21.1h86.3v13.4H425v6.4L497.6,552.6L497.6,552.6z"/>
    <path class="st3" d="M580,526.3L555.3,568h-9.1l-24.9-41.7h-13.9v-15h18.8l24.7,39.1l23.2-39.1h19.6V568H580V526.3z M521.1,568
	h-13.7v-34.9h13.7V568z"/>
    <polygon class="st3" points="652.3,533.3 647.4,526.3 629.8,526.3 639.7,511.3 653.6,511.3 689.8,568 675.7,568 660.5,546.2
	632.9,546.2 617.5,568 603.5,568 625.8,533.3 "/>
    <path class="st3" d="M699.5,525.4c0-3.9,1.7-7.2,5-9.9c3.3-2.8,7.4-4.2,12.3-4.2h69v15h-72.6v6.8h55.2c5.9,0,10.3,1,13.1,3
	s4.2,5.5,4.2,10.4v6.4c0,2.5-0.4,4.7-1.3,6.6c-0.9,1.8-2.1,3.4-3.7,4.7c-1.6,1.3-3.4,2.2-5.5,2.8s-4.4,0.9-6.9,0.9h-68.9v-15h72
	v-6.4h-54.8c-5.4-0.1-9.5-1.3-12.5-3.5s-4.5-5.5-4.7-10v-3.9v-3.7H699.5z"/>
    <rect x="80.7" y="394.6" class="st0" width="71.6" height="73.5"/>
</svg>
