<svg xmlns="http://www.w3.org/2000/svg" width="230" height="90" viewBox="0 0 1800 950">
  <defs>
    <style>
	.cls-1{fill:#fff;}
	.cls-2{fill:#e31913;}
	</style>
  </defs>
  <polygon class="cls-1"
           points="1371.06 0 1371.06 490.63 630.51 0 452.32 0 452.32 178.19 452.32 673.44 625.88 673.44 625.14 178.19 628.2 178.19 1371.06 673.44 1544.62 673.44 1544.62 0 1371.06 0"/>
  <path class="cls-1" d="M1843.23,244.18H1669.67V66h173.56Zm0,495.24H1669.67V318.23h173.56Z"
        transform="translate(-70.9 -65.98)"/>
  <path class="cls-1" d="M469.07,244.18H295.5V66H469.07Zm0,495.24H295.5V318.23H469.07Z"
        transform="translate(-70.9 -65.98)"/>
  <path class="cls-2"
        d="M1850,931.6a81.6,81.6,0,0,1-81.58,81.59H152.49A81.6,81.6,0,0,1,70.9,931.6V894.2a81.59,81.59,0,0,1,81.59-81.58H1768.42A81.59,81.59,0,0,1,1850,894.2Z"
        transform="translate(-70.9 -65.98)"/>
  <path class="cls-1"
        d="M116.45,878.45q0-14.15,12.18-24.06,12.18-10.17,29.7-10.17H325.64v36.35h-176v16.52H283.53q21.48,0,31.81,7.31t10.3,25.25v15.59a36.57,36.57,0,0,1-3.22,15.91,32.72,32.72,0,0,1-8.86,11.35,37.29,37.29,0,0,1-13.41,6.82,59.49,59.49,0,0,1-16.62,2.27H116.45V945.24H291.06V929.65H158.11q-19.49-.48-30.36-8.38c-7.24-5.24-11-13.33-11.3-24.18V878.45Z"
        transform="translate(-70.9 -65.98)"/>
  <rect class="cls-1" x="278.44" y="778.23" width="33.26" height="137.37"/>
  <path class="cls-1"
        d="M406.73,878.45q0-14.15,12.19-24.06,12.21-10.17,29.7-10.17H615.93v36.35H440v16.52H573.82q21.49,0,31.81,7.31t10.3,25.25v15.59a36.71,36.71,0,0,1-3.22,15.91,32.6,32.6,0,0,1-8.86,11.35,37.24,37.24,0,0,1-13.4,6.82,59.51,59.51,0,0,1-16.63,2.27H406.73V945.24H581.36V929.65h-133q-19.51-.48-30.36-8.38c-7.22-5.24-11-13.33-11.3-24.18V878.45Z"
        transform="translate(-70.9 -65.98)"/>
  <polygon class="cls-1"
           points="689.29 915.61 656.05 915.61 656.05 814.59 568.74 814.59 568.74 778.23 777.93 778.23 777.93 814.59 689.29 814.59 689.29 915.61"/>
  <path class="cls-1"
        d="M872.54,880.57v-2.12q0-14.15,12.17-24.06c8.13-6.77,18-10.17,29.72-10.17h167.31v36.35Zm209.2,63.72v37.3H914.43c-11.71,0-21.59-3.32-29.72-9.93q-12.16-10.15-12.17-24.31V896.16h209.2v32.55h-176v15.58Z"
        transform="translate(-70.9 -65.98)"/>
  <path class="cls-1"
        d="M1281.39,880.57l-59.85,101H1199.4l-60.28-101h-33.68V844.22h45.66l59.83,94.87,56.26-94.87h47.44V981.59h-33.24Zm-142.72,101h-33.23v-84.5h33.23Z"
        transform="translate(-70.9 -65.98)"/>
  <polygon class="cls-1"
           points="1385.78 831.57 1374.03 814.59 1331.26 814.59 1355.19 778.23 1388.86 778.23 1476.62 915.61 1442.51 915.61 1405.72 862.73 1338.8 862.73 1301.36 915.61 1267.45 915.61 1321.49 831.57 1385.78 831.57"/>
  <path class="cls-1"
        d="M1571.22,878.45q0-14.15,12.21-24.06,12.18-10.17,29.71-10.17h167.28v36.35H1604.48v16.52h133.84q21.51,0,31.81,7.31t10.29,25.25v15.59a36.72,36.72,0,0,1-3.2,15.91,32.74,32.74,0,0,1-8.87,11.35,37.12,37.12,0,0,1-13.41,6.82,59.39,59.39,0,0,1-16.62,2.27h-167.1V945.24h174.64V929.65H1612.91c-13-.32-23.13-3.1-30.37-8.38s-11-13.33-11.32-24.18V878.45Z"
        transform="translate(-70.9 -65.98)"/>
  <rect class="cls-1" y="495.23" width="173.57" height="178.21"/>
</svg>