<svg xmlns="http://www.w3.org/2000/svg" width="230" height="90" viewBox="0 0 230 90">
  <style type="text/css">
	.st0{fill:#006797;}
	.st1{fill:#007BA6;}
	.st2{fill:#E31913;}
	.st3{fill:#FFFFFF;}
</style>

	<polygon class="st0" points="159.1,1.6 159.1,46.6 91.2,1.6 74.9,1.6 74.9,17.9 74.9,63.3 90.8,63.3 90.8,17.9 91,17.9 159.1,63.3 
		175,63.3 175,1.6 	"/>
	<path class="st1" d="M195.9,17.9H180V1.6h15.9V17.9z M195.9,63.3H180V24.7h15.9V63.3z"/>
	<path class="st1" d="M70,17.9H54V1.6H70V17.9z M70,63.3H54V24.7H70V63.3z"/>
	<path class="st2" d="M196.5,80.9c0,4.1-3.4,7.5-7.5,7.5H40.9c-4.1,0-7.5-3.4-7.5-7.5v-3.4c0-4.1,3.4-7.5,7.5-7.5h148.1
		c4.1,0,7.5,3.4,7.5,7.5L196.5,80.9L196.5,80.9z"/>
	<path class="st3" d="M37.6,76c0-0.9,0.4-1.6,1.1-2.2c0.7-0.6,1.6-0.9,2.7-0.9h15.3v3.3H40.6v1.5h12.3c1.3,0,2.3,0.2,2.9,0.7
		c0.6,0.4,1,1.2,1,2.3v1.4c0,0.6-0.1,1-0.3,1.5c-0.2,0.4-0.5,0.8-0.8,1c-0.3,0.3-0.8,0.5-1.2,0.6c-0.5,0.1-1,0.2-1.5,0.2H37.6v-3.3
		h16v-1.4H41.4c-1.2,0-2.1-0.3-2.8-0.8c-0.7-0.5-1-1.2-1-2.2v-0.9C37.6,76.9,37.6,76,37.6,76z"/>
	<rect x="59" y="72.9" class="st3" width="3" height="12.6"/>
	<path class="st3" d="M64.2,76c0-0.9,0.4-1.6,1.1-2.2c0.8-0.6,1.6-0.9,2.7-0.9h15.3v3.3H67.3v1.5h12.3c1.3,0,2.3,0.2,2.9,0.7
		c0.6,0.4,0.9,1.2,0.9,2.3v1.4c0,0.6-0.1,1-0.3,1.5c-0.2,0.4-0.5,0.8-0.8,1s-0.8,0.5-1.2,0.6c-0.5,0.1-1,0.2-1.5,0.2H64.2v-3.3h16
		v-1.4H68c-1.2,0-2.1-0.3-2.8-0.8c-0.7-0.5-1-1.2-1-2.2v-0.9L64.2,76L64.2,76L64.2,76z"/>
	<polygon class="st3" points="96.6,85.5 93.6,85.5 93.6,76.2 85.6,76.2 85.6,72.9 104.8,72.9 104.8,76.2 96.6,76.2 	"/>
	<path class="st3" d="M106.9,76.2V76c0-0.9,0.4-1.6,1.1-2.2c0.8-0.6,1.6-0.9,2.7-0.9h15.3v3.3L106.9,76.2L106.9,76.2z M126.1,82.1
		v3.4h-15.3c-1.1,0-2-0.3-2.7-0.9c-0.7-0.6-1.1-1.4-1.1-2.2v-4.7h19.2v3H110v1.4L126.1,82.1L126.1,82.1z"/>
	<path class="st3" d="M144.4,76.2l-5.5,9.3h-2l-5.5-9.3h-3.1v-3.3h4.2l5.5,8.7l5.2-8.7h4.4v12.6h-3V76.2z M131.3,85.5h-3v-7.8h3
		V85.5z"/>
	<polygon class="st3" points="160.5,77.8 159.4,76.2 155.5,76.2 157.7,72.9 160.8,72.9 168.8,85.5 165.7,85.5 162.3,80.7 
		156.2,80.7 152.8,85.5 149.6,85.5 154.6,77.8 	"/>
	<path class="st3" d="M171,76c0-0.9,0.4-1.6,1.1-2.2c0.7-0.6,1.6-0.9,2.7-0.9h15.3v3.3H174v1.5h12.3c1.3,0,2.3,0.2,2.9,0.7
		c0.6,0.4,0.9,1.2,0.9,2.3v1.4c0,0.6-0.1,1-0.3,1.5c-0.2,0.4-0.5,0.8-0.8,1c-0.4,0.3-0.8,0.5-1.2,0.6c-0.5,0.1-1,0.2-1.5,0.2H171
		v-3.3h16v-1.4h-12.2c-1.2,0-2.1-0.3-2.8-0.8c-0.7-0.5-1-1.2-1-2.2v-0.9L171,76L171,76L171,76z"/>
	<rect x="33.5" y="47" class="st0" width="15.9" height="16.3"/>

</svg>